nColumns=19
nRows=119
DataType=double
version=3
OpenSimVersion=4.1
endheader
time	ground_force_1_vx	ground_force_1_vy	ground_force_1_vz	ground_force_1_px	ground_force_1_py	ground_force_1_pz	ground_force_1_mx	ground_force_1_my	ground_force_1_mz	ground_force_2_vx	ground_force_2_vy	ground_force_2_vz	ground_force_2_px	ground_force_2_py	ground_force_2_pz	ground_force_2_mx	ground_force_2_my	ground_force_2_mz
0.03	0	0	0	-0.00277497	0	-0.00065743	0	0	0	-178.7	1142.44	-183.147	0.845923	0	-0.372965	-0	16.0927	-0
0.04	0	0	0	-0.00277497	0	-0.000657431	0	0	0	-152.552	1263.92	-18.3383	0.829732	0	-0.341131	-0	4.22675	-0
0.05	0	0	0	-0.00277497	0	-0.000657434	0	0	0	-109.912	1355.02	52.733	0.806634	0	-0.327254	0	-4.90861	0
0.06	0	0	0	-0.00277497	0	-0.000657438	0	0	0	-61.4936	1396.15	35.5265	0.778257	0	-0.325852	0	-7.43779	0
0.07	0	0	0	-0.00277497	0	-0.000657443	0	0	0	-21.0459	1397.84	17.2757	0.746452	0	-0.329966	0	-3.72826	0
0.08	0	0	0	-0.00277497	0	-0.00065745	0	0	0	13.3223	1375.39	24.9045	0.712948	0	-0.334121	-0	1.86887	-0
0.09	0	0	0	-0.00277497	0	-0.000657459	0	0	0	49.9432	1331.2	29.135	0.678788	0	-0.335618	-0	4.58698	-0
0.1	0	0	0	-0.00277497	0	-0.000657469	0	0	0	88.1112	1257.87	21.3811	0.643796	0	-0.334409	-0	2.86921	-0
0.11	0	0	0	-0.00277497	0	-0.000657481	0	0	0	126.376	1145.67	5.95349	0.606685	0	-0.331766	0	-1.05354	0
0.12	0	0	0	-0.00277497	0	-0.000657495	0	0	0	166.999	985.722	-13.4036	0.565832	0	-0.328945	0	-3.5983	0
0.13	0	0	0	-0.00277497	0	-0.00065751	0	0	0	198.075	780.086	-26.0565	0.520117	0	-0.326714	0	-2.7808	0
0.14	0	0	0	-0.00277497	0	-0.000657527	0	0	0	191.985	559.262	-30.2384	0.468892	0	-0.32552	-0	0.603496	-0
0.15	0	0	0	-0.00277497	0	-0.000657545	0	0	0	145.817	361.336	-29.9772	0.409078	0	-0.325801	-0	4.00642	-0
0.16	0	0	0	-0.00277497	0	-0.000657565	0	0	0	94.7397	206.253	-22.1529	0.324115	0	-0.32821	-0	5.22521	-0
0.17	0	0	0	-0.00277497	0	-0.000657586	0	0	0	56.4847	102.028	-9.33177	0.125658	0	-0.333402	-0	3.98807	-0
0.18	0	0	0	-0.00277497	0	-0.000657609	0	0	0	28.1441	44.2643	-1.48808	-2.23526	0	-0.267044	-0	1.92209	-0
0.19	0	0	0	-0.00277497	0	-0.000657633	0	0	0	8.108	18.1148	-2.24764	-0.00277498	0	-0.000657611	0	0	0
0.2	0	0	0	-0.00277497	0	-0.000657659	0	0	0	-1.78316	10.3885	-4.05854	-0.00277498	0	-0.000657634	0	0	0
0.21	0	0	0	-0.00277497	0	-0.000657687	0	0	0	0	0	0	-0.00277498	0	-0.000657658	0	0	0
0.22	0	0	0	-0.00277498	0	-0.000657716	0	0	0	0	0	0	-0.00277498	0	-0.000657684	0	0	0
0.23	0	0	0	-0.00277498	0	-0.000657747	0	0	0	0	0	0	-0.00277498	0	-0.000657712	0	0	0
0.24	0	0	0	-0.00277498	0	-0.000657779	0	0	0	0	0	0	-0.00277498	0	-0.00065774	0	0	0
0.25	-0.216237	21.9804	-2.21734	-0.00277498	0	-0.000657813	0	0	0	0	0	0	-0.00277498	0	-0.00065777	0	0	0
0.26	-2.92474	83.3465	-4.90416	0.844558	0	-0.204293	-0	1.33372	-0	0	0	0	-0.00277498	0	-0.000657802	0	0	0
0.27	-8.84703	292.873	-16.4435	0.965345	0	-0.259756	-0	0.236762	-0	0	0	0	-0.00277499	0	-0.000657834	0	0	0
0.28	-23.9182	740.213	-19.5507	0.970209	0	-0.261899	-0	1.91157	-0	0	0	0	-0.00277499	0	-0.000657869	0	0	0
0.29	-71.2455	1232.39	20.0342	0.971424	0	-0.262512	-0	4.71329	-0	0	0	0	-0.00277499	0	-0.000657904	0	0	0
0.3	-156.747	1398.65	81.3705	0.970085	0	-0.262571	-0	5.75925	-0	0	0	0	-0.00277499	0	-0.000657941	0	0	0
0.31	-250.562	1298.03	66.8119	0.962279	0	-0.261773	-0	3.80513	-0	0	0	0	-0.00277499	0	-0.000657979	0	0	0
0.32	-301.167	1235.33	-26.2168	0.940117	0	-0.259242	-0	0.206148	-0	0	0	0	-0.00277499	0	-0.000658018	0	0	0
0.33	-279.151	1300.06	-84.5119	0.900306	0	-0.254796	0	-2.72841	0	0	0	0	-0.002775	0	-0.000658059	0	0	0
0.34	-212.585	1414.4	-77.5205	0.853257	0	-0.250191	0	-4.00518	0	0	0	0	-0.002775	0	-0.000658101	0	0	0
0.35	-134.683	1489.3	-75.0916	0.810112	0	-0.24722	0	-4.26901	0	0	0	0	-0.002775	0	-0.000658144	0	0	0
0.36	-63.0579	1500.72	-95.8584	0.770968	0	-0.246014	0	-4.36456	0	0	0	0	-0.002775	0	-0.000658189	0	0	0
0.37	1.92135	1471.02	-95.1507	0.730725	0	-0.24596	0	-4.38276	0	0	0	0	-0.002775	0	-0.000658235	0	0	0
0.38	69.8284	1415.67	-66.9184	0.685721	0	-0.246632	0	-4.048	0	0	0	0	-0.00277501	0	-0.000658282	0	0	0
0.39	145.418	1332.38	-38.3222	0.63624	0	-0.247799	0	-3.40002	0	0	0	0	-0.00277501	0	-0.000658331	0	0	0
0.4	216.549	1219.65	-14.0428	0.585976	0	-0.249133	0	-2.83441	0	0	0	0	-0.00277501	0	-0.000658381	0	0	0
0.41	268.336	1073.59	9.78008	0.53901	0	-0.250151	0	-2.63724	0	0	0	0	-0.00277501	0	-0.000658432	0	0	0
0.42	288.868	888.085	29.9017	0.496894	0	-0.250386	0	-2.63661	0	0	0	0	-0.00277502	0	-0.000658484	0	0	0
0.43	266.055	668.953	42.5823	0.457689	0	-0.249439	0	-2.3183	0	0	0	0	-0.00277502	0	-0.000658538	0	0	0
0.44	203.925	444.29	40.5813	0.415273	0	-0.246691	0	-1.25662	0	0	0	0	-0.00277502	0	-0.000658593	0	0	0
0.45	131.824	252.764	22.7618	0.354482	0	-0.240121	-0	0.518985	-0	0	0	0	-0.00277502	0	-0.000658649	0	0	0
0.46	73.7065	119.038	4.7136	0.226091	0	-0.220042	-0	2.42132	-0	0	0	0	-0.00277503	0	-0.000658706	0	0	0
0.47	33.3962	47.0204	-0.121184	-0.16402	0	-0.0612089	-0	3.43295	-0	0	0	0	-0.00277503	0	-0.000658764	0	0	0
0.48	9.18676	20.4848	1.52127	-0.00277501	0	-0.000658999	0	0	0	0	0	0	-0.00277503	0	-0.000658824	0	0	0
0.49	-2.78695	11.6243	-0.305816	-0.00277501	0	-0.000659067	0	0	0	0	0	0	-0.00277504	0	-0.000658885	0	0	0
0.5	0	0	0	-0.00277502	0	-0.000659137	0	0	0	0	0	0	-0.00277504	0	-0.000658947	0	0	0
0.51	0	0	0	-0.00277502	0	-0.000659209	0	0	0	0	0	0	-0.00277504	0	-0.00065901	0	0	0
0.52	0	0	0	-0.00277502	0	-0.000659281	0	0	0	0	0	0	-0.00277504	0	-0.000659075	0	0	0
0.53	0	0	0	-0.00277502	0	-0.000659355	0	0	0	-2.53423	18.3717	-3.66004	-0.00277505	0	-0.00065914	0	0	0
0.54	0	0	0	-0.00277502	0	-0.00065943	0	0	0	-11.5163	66.4389	-8.90562	1.72358	0	-0.103655	-0	1.97848	-0
0.55	0	0	0	-0.00277503	0	-0.000659506	0	0	0	-30.2597	240.014	-14.1288	1.01723	0	-0.326752	0	-1.0983	0
0.56	0	0	0	-0.00277503	0	-0.000659584	0	0	0	-60.6832	637.124	-12.789	1.02547	0	-0.319619	0	-3.10488	0
0.57	0	0	0	-0.00277503	0	-0.000659663	0	0	0	-102.021	1117.61	23.0509	1.02571	0	-0.316566	0	-4.60266	0
0.58	0	0	0	-0.00277503	0	-0.000659743	0	0	0	-153.519	1310.22	53.5028	1.02256	0	-0.31581	0	-6.72939	0
0.59	0	0	0	-0.00277503	0	-0.000659824	0	0	0	-203.974	1192.25	-20.514	1.01339	0	-0.317712	0	-8.92913	0
0.6	0	0	0	-0.00277504	0	-0.000659907	0	0	0	-240.909	1066.78	-111.144	0.99087	0	-0.322105	0	-9.59137	0
0.61	0	0	0	-0.00277504	0	-0.00065999	0	0	0	-247.371	1081.84	-41.7144	0.949786	0	-0.326682	0	-8.29144	0
0.62	0	0	0	-0.00277504	0	-0.000660075	0	0	0	-206.819	1189.12	96.8216	0.900477	0	-0.329068	0	-6.20456	0
0.63	0	0	0	-0.00277504	0	-0.000660161	0	0	0	-136.409	1284.08	105.264	0.8582	0	-0.330058	0	-4.37389	0
0.64	0	0	0	-0.00277505	0	-0.000660249	0	0	0	-78.5505	1324.25	26.2478	0.824729	0	-0.330934	0	-2.78408	0
0.65	0	0	0	-0.00277505	0	-0.000660337	0	0	0	-45.6378	1333.76	14.8824	0.794437	0	-0.331694	0	-1.21708	0
0.66	0	0	0	-0.00277505	0	-0.000660427	0	0	0	-16.7735	1332.75	56.9769	0.762462	0	-0.332188	-0	0.037452	-0
0.67	0	0	0	-0.00277505	0	-0.000660517	0	0	0	20.0502	1312.44	55.8029	0.726672	0	-0.33252	-0	0.508676	-0
0.68	0	0	0	-0.00277506	0	-0.000660609	0	0	0	61.9822	1265.45	22.0718	0.687234	0	-0.332512	-0	0.012667	-0
0.69	0	0	0	-0.00277506	0	-0.000660702	0	0	0	108.287	1194.05	4.64304	0.645163	0	-0.331742	0	-1.20196	0
0.7	0	0	0	-0.00277506	0	-0.000660796	0	0	0	161.96	1088.87	-1.66517	0.601053	0	-0.330206	0	-2.38606	0
0.71	0	0	0	-0.00277506	0	-0.000660891	0	0	0	215.952	935.398	-12.3836	0.555091	0	-0.328509	0	-2.47097	0
0.72	0	0	0	-0.00277507	0	-0.000660987	0	0	0	239.243	741.01	-24.2497	0.507348	0	-0.327503	0	-0.811345	0
0.73	0	0	0	-0.00277507	0	-0.000661084	0	0	0	210.256	531.51	-31.4848	0.456455	0	-0.327965	-0	2.06398	-0
0.74	0	0	0	-0.00277507	0	-0.000661182	0	0	0	152.952	336.059	-29.7364	0.395439	0	-0.330414	-0	4.69737	-0
0.75	0	0	0	-0.00277508	0	-0.000661281	0	0	0	99.1775	185.126	-17.8403	0.298554	0	-0.334919	-0	5.90943	-0
0.76	0	0	0	-0.00277508	0	-0.000661381	0	0	0	54.6444	87.8904	-4.22678	0.0344019	0	-0.337309	-0	5.64309	-0
0.77	0	0	0	-0.00277508	0	-0.000661482	0	0	0	19.8804	36.4657	-1.96629	10.0236	0	-1.97455	-0	4.47193	-0
0.78	0	0	0	-0.00277508	0	-0.000661584	0	0	0	-0.353857	14.1986	-6.10041	-0.00277514	0	-0.000661121	0	0	0
0.79	0	0	0	-0.00277509	0	-0.000661687	0	0	0	0	0	0	-0.00277514	0	-0.000661212	0	0	0
0.8	0	0	0	-0.00277509	0	-0.000661791	0	0	0	0	0	0	-0.00277515	0	-0.000661304	0	0	0
0.81	0	0	0	-0.00277509	0	-0.000661895	0	0	0	0	0	0	-0.00277515	0	-0.000661397	0	0	0
0.82	0	0	0	-0.0027751	0	-0.000662001	0	0	0	0	0	0	-0.00277516	0	-0.000661491	0	0	0
0.83	-3.91759	15.3788	-2.56373	-0.0027751	0	-0.000662107	0	0	0	0	0	0	-0.00277516	0	-0.000661586	0	0	0
0.84	-3.99292	47.7719	-1.51175	1.10273	0	-0.288212	-0	2.51014	-0	0	0	0	-0.00277517	0	-0.000661681	0	0	0
0.85	-7.32719	178.568	-12.7412	1.03485	0	-0.261345	-0	0.513514	-0	0	0	0	-0.00277517	0	-0.000661777	0	0	0
0.86	-20.1784	521.81	-26.5413	1.04008	0	-0.26533	-0	1.00888	-0	0	0	0	-0.00277517	0	-0.000661874	0	0	0
0.87	-66.2999	1021.31	-3.8322	1.03985	0	-0.266371	-0	4.72026	-0	0	0	0	-0.00277518	0	-0.000661972	0	0	0
0.88	-156.857	1324.65	71.3503	1.03841	0	-0.266967	-0	8.40622	-0	0	0	0	-0.00277518	0	-0.00066207	0	0	0
0.89	-251.975	1281.78	107.268	1.03335	0	-0.267227	-0	8.66101	-0	0	0	0	-0.00277519	0	-0.000662169	0	0	0
0.9	-314.063	1170.04	31.4558	1.01751	0	-0.266389	-0	5.46781	-0	0	0	0	-0.00277519	0	-0.000662268	0	0	0
0.91	-323.597	1191.03	-58.8356	0.983503	0	-0.263389	-0	1.77841	-0	0	0	0	-0.0027752	0	-0.000662369	0	0	0
0.92	-288.931	1315.14	-66.8305	0.936763	0	-0.258821	0	-0.005177	0	0	0	0	-0.0027752	0	-0.000662469	0	0	0
0.93	-233.133	1432.66	-45.4658	0.891263	0	-0.25477	0	-0.232749	0	0	0	0	-0.00277521	0	-0.000662571	0	0	0
0.94	-166.278	1484.39	-59.761	0.851511	0	-0.252079	0	-0.603671	0	0	0	0	-0.00277521	0	-0.000662673	0	0	0
0.95	-99.832	1479.21	-82.612	0.813666	0	-0.250283	0	-1.68869	0	0	0	0	-0.00277522	0	-0.000662776	0	0	0
0.96	-33.1818	1446.3	-76.0599	0.77315	0	-0.248925	0	-2.51685	0	0	0	0	-0.00277522	0	-0.000662879	0	0	0
0.97	35.5937	1396.27	-57.0591	0.727842	0	-0.248067	0	-2.08166	0	0	0	0	-0.00277523	0	-0.000662983	0	0	0
0.98	105.996	1324.59	-39.709	0.67889	0	-0.247995	0	-0.608673	0	0	0	0	-0.00277523	0	-0.000663087	0	0	0
0.99	174.133	1224.49	-16.4989	0.629704	0	-0.248688	-0	0.685569	-0	0	0	0	-0.00277524	0	-0.000663192	0	0	0
1	231.801	1086.84	10.9699	0.583566	0	-0.249722	-0	0.803727	-0	0	0	0	-0.00277524	0	-0.000663297	0	0	0
1.01	265.758	903.436	36.9566	0.54185	0	-0.250493	0	-0.196902	0	0	0	0	-0.00277525	0	-0.000663403	0	0	0
1.02	258.967	680.193	52.7961	0.503432	0	-0.25037	0	-1.43956	0	0	0	0	-0.00277525	0	-0.000663509	0	0	0
1.03	206.38	447.557	48.6524	0.463374	0	-0.24846	0	-2.01029	0	0	0	0	-0.00277526	0	-0.000663616	0	0	0
1.04	133.871	249.558	27.0633	0.405953	0	-0.242259	0	-1.36963	0	0	0	0	-0.00277526	0	-0.000663723	0	0	0
1.05	71.5879	114.222	6.39849	0.253972	0	-0.217478	-0	0.623129	-0	0	0	0	-0.00277527	0	-0.000663831	0	0	0
1.06	27.8327	43.7021	-0.379638	2.11921	0	-0.643509	-0	3.34424	-0	0	0	0	-0.00277527	0	-0.000663939	0	0	0
1.07	4.78635	16.3428	1.4013	-0.00277518	0	-0.000664878	0	0	0	0	0	0	-0.00277528	0	-0.000664047	0	0	0
1.08	0	0	0	-0.00277518	0	-0.000665001	0	0	0	0	0	0	-0.00277528	0	-0.000664156	0	0	0
1.09	0	0	0	-0.00277518	0	-0.000665123	0	0	0	0	0	0	-0.00277529	0	-0.000664265	0	0	0
1.1	0	0	0	-0.00277519	0	-0.000665247	0	0	0	0	0	0	-0.00277529	0	-0.000664375	0	0	0
1.11	0	0	0	-0.00277519	0	-0.00066537	0	0	0	-3.12719	10.433	-0.917326	-0.0027753	0	-0.000664485	0	0	0
1.12	0	0	0	-0.00277519	0	-0.000665494	0	0	0	-5.65275	13.8194	-3.15078	-0.0027753	0	-0.000664595	0	0	0
1.13	0	0	0	-0.0027752	0	-0.000665618	0	0	0	-3.81077	38.0298	-4.09313	1.14738	0	-0.32265	0	-0.554371	0
1.14	0	0	0	-0.0027752	0	-0.000665743	0	0	0	-1.51914	142.616	-14.1326	1.04169	0	-0.322954	0	-0.505941	0
1.15	0	0	0	-0.0027752	0	-0.000665868	0	0	0	-5.67583	416.225	-36.9749	1.05504	0	-0.319152	0	-0.162239	0
1.16	0	0	0	-0.00277521	0	-0.000665993	0	0	0	-37.5148	830.769	-46.7179	1.05548	0	-0.31766	0	-0.022515	0
1.17	0	0	0	-0.00277521	0	-0.000666118	0	0	0	-110.092	1123.23	-29.8441	1.05414	0	-0.318043	0	-0.87068	0
1.18	0	0	0	-0.00277521	0	-0.000666244	0	0	0	-182.071	1119.11	-36.3517	1.04999	0	-0.321158	0	-2.58286	0
1.19	0	0	0	-0.00277522	0	-0.000666369	0	0	0	-222.81	999.112	-83.202	1.03717	0	-0.327839	0	-3.98715	0
1.2	0	0	0	-0.00277522	0	-0.000666495	0	0	0	-241.997	972.709	-63.1868	1.00701	0	-0.336698	0	-4.18357	0
1.21	0	0	0	-0.00277522	0	-0.000666621	0	0	0	-234.627	1057.96	51.4574	0.960897	0	-0.343463	0	-3.43496	0
